<?xml version="1.0" encoding="UTF-8"?>
<svg width="36px" height="36px" viewBox="0 0 36 36" version="1.1" xmlns="http://www.w3.org/2000/svg" xmlns:xlink="http://www.w3.org/1999/xlink">
    <title>Tidal / 36px / logo_vertical_white Copy 2</title>
    <defs>
        <rect id="path-1" x="0" y="0" width="36" height="36" rx="7.11111111"></rect>
        <polygon id="path-3" points="0 0 3.78290097 0 3.78290097 5.93141628 0 5.93141628"></polygon>
        <polygon id="path-5" points="0 0 3.72492569 0 3.72492569 4.4160172 0 4.4160172"></polygon>
    </defs>
    <g id="📦-Assetsheet" stroke="none" stroke-width="1" fill="none" fill-rule="evenodd">
        <g id="Tidal-/-36px-/-logo_vertical_white-Copy-2">
            <mask id="mask-2" fill="white">
                <use xlink:href="#path-1"></use>
            </mask>
            <use id="mask" fill="#FFFFFF" xlink:href="#path-1"></use>
            <g id="Group-31" mask="url(#mask-2)">
                <g transform="translate(4.000000, 15.000000)">
                    <g id="Group-3" stroke-width="1" fill="none" transform="translate(0.000000, 0.068584)">
                        <mask id="mask-4" fill="white">
                            <use xlink:href="#path-3"></use>
                        </mask>
                        <g id="Clip-2"></g>
                        <path d="M3.78290097,5.67702783 C3.78290097,5.76320289 3.72804937,5.81501442 3.61834618,5.83270816 C3.23442905,5.89852723 2.76834468,5.93141628 2.21996088,5.93141628 C1.94565884,5.93141628 1.6763353,5.89054047 1.41172591,5.80895268 C1.14711651,5.72728297 0.909558434,5.59593153 0.699360065,5.41473454 C0.489029523,5.23370138 0.319804636,4.98426882 0.191905692,4.66668259 C0.0639626896,4.34909637 -8.81150153e-06,3.96446234 -8.81150153e-06,3.51286243 L-8.81150153e-06,2.422281 C-8.81150153e-06,1.82536307 0.106830645,1.34578903 0.320641729,0.983436012 C0.534320641,0.621205864 0.806992556,0.366735498 1.13856936,0.220065874 C1.47001399,0.073396249 1.83053657,0 2.21996088,0 C2.62022334,0 3.09185896,0.0417768828 3.63482368,0.125248733 C3.72249812,0.135406249 3.76642346,0.168295305 3.76642346,0.223997816 L3.76642346,0.622926088 C3.76642346,0.678628599 3.73346844,0.706479854 3.6677787,0.706479854 L3.64297432,0.706479854 C3.03423174,0.660607198 2.56264018,0.637670871 2.22815558,0.637670871 C1.77568498,0.637670871 1.41780584,0.777705343 1.15460629,1.05769237 C0.891362683,1.33763845 0.75971885,1.79214636 0.75971885,2.42105227 L0.75971885,3.51417308 C0.75971885,4.13808215 0.892067603,4.59062409 1.15667699,4.87188081 C1.42128638,5.15313753 1.7784606,5.29370446 2.22815558,5.29370446 C2.61471615,5.29370446 3.07811302,5.27330751 3.61834618,5.23247265 L3.65130119,5.23247265 C3.73897563,5.23247265 3.78290097,5.27424953 3.78290097,5.35784426 L3.78290097,5.67702783 Z" id="Fill-1" fill="#5F6465" mask="url(#mask-4)"></path>
                    </g>
                    <path d="M6.80122795,2.06139837 C6.80122795,2.10985136 6.78946459,2.1429452 6.76620223,2.16076181 C6.74289581,2.17849651 6.69553398,2.18742529 6.624293,2.18742529 C6.11155172,2.18742529 5.72084974,2.212901 5.45209895,2.26389337 L5.45209895,5.78842876 C5.45209895,5.83426046 5.438353,5.87185965 5.41103735,5.90118538 C5.38376575,5.93055208 5.3482554,5.94513303 5.30455035,5.94513303 L4.8661341,5.94513303 C4.82789218,5.94513303 4.79295458,5.93055208 4.76162969,5.90118538 C4.73017263,5.87185965 4.71448815,5.83426046 4.71448815,5.78842876 L4.71448815,1.98513508 C4.71448815,1.908667 4.76497806,1.84874584 4.8661341,1.80545352 C5.09285403,1.71387204 5.33697668,1.65407376 5.59859016,1.62597676 C5.86007147,1.59804359 6.20200178,1.58399509 6.624293,1.58399509 C6.69011491,1.58399509 6.73611095,1.59108077 6.76214894,1.60496544 C6.78818692,1.61901394 6.80122795,1.65149342 6.80122795,1.70236292 L6.80122795,2.06139837 Z" id="Fill-4" fill="#5F6465"></path>
                    <path d="M8.44071354,5.78841238 C8.44071354,5.83424407 8.42423603,5.87184327 8.39154536,5.90120996 C8.35881064,5.93057665 8.31911482,5.94511664 8.27272227,5.94511664 L7.87113808,5.94511664 C7.82461336,5.94511664 7.78491754,5.92992133 7.75222687,5.89928495 C7.71949214,5.86864857 7.70314681,5.83170469 7.70314681,5.78841238 L7.70314681,1.0272403 C7.70314681,0.983947984 7.71878722,0.947086028 7.75024428,0.916449648 C7.78161323,0.885813267 7.82192585,0.870495077 7.87113808,0.870495077 L8.27272227,0.870495077 C8.3245339,0.870495077 8.36559549,0.88450262 8.39568677,0.912599621 C8.42560182,0.940655665 8.44071354,0.97878731 8.44071354,1.0272403 L8.44071354,5.78841238 Z" id="Fill-6" fill="#5F6465"></path>
                    <path d="M9.66580744,5.78841238 C9.66580744,5.83424407 9.64932993,5.87184327 9.6165952,5.90120996 C9.58390453,5.93057665 9.54420872,5.94511664 9.49781616,5.94511664 L9.09623198,5.94511664 C9.04970725,5.94511664 9.01001144,5.92992133 8.97727671,5.89928495 C8.94458604,5.86864857 8.92819665,5.83170469 8.92819665,5.78841238 L8.92819665,1.0272403 C8.92819665,0.983947984 8.94388112,0.947086028 8.97533818,0.916449648 C9.00670713,0.885813267 9.04701975,0.870495077 9.09623198,0.870495077 L9.49781616,0.870495077 C9.54962779,0.870495077 9.59068939,0.88450262 9.62078067,0.912599621 C9.65069572,0.940655665 9.66580744,0.97878731 9.66580744,1.0272403 L9.66580744,5.78841238 Z" id="Fill-8" fill="#5F6465"></path>
                    <path d="M10.8613828,5.78841238 C10.8613828,5.83424407 10.8449053,5.87184327 10.8122146,5.90120996 C10.7794799,5.93057665 10.7397841,5.94511664 10.6933915,5.94511664 L10.2918073,5.94511664 C10.2452826,5.94511664 10.2056309,5.92992133 10.1728961,5.89928495 C10.1401614,5.86864857 10.1238161,5.83170469 10.1238161,5.78841238 L10.1238161,1.0272403 C10.1238161,0.983947984 10.1394565,0.947086028 10.1709135,0.916449648 C10.2022825,0.885813267 10.2425951,0.870495077 10.2918073,0.870495077 L10.6933915,0.870495077 C10.7452032,0.870495077 10.7862648,0.88450262 10.816356,0.912599621 C10.8463151,0.940655665 10.8613828,0.97878731 10.8613828,1.0272403 L10.8613828,5.78841238 Z" id="Fill-10" fill="#5F6465"></path>
                    <path d="M14.7371526,5.74249467 C14.7371526,5.83735277 14.6808912,5.89498029 14.5685445,5.91545915 C14.2258212,5.97185794 13.8747269,5.9999959 13.5155701,5.9999959 C13.1453989,5.9999959 12.8231623,5.92234005 12.5488602,5.76674164 C12.2745582,5.61130706 12.0674439,5.3907497 11.9275613,5.10531529 C11.7876346,4.81992184 11.7176713,4.48464188 11.7176713,4.09980306 L11.7176713,3.48805843 C11.7176713,3.105759 11.7869297,2.77113436 11.9254906,2.48443026 C12.0640074,2.19772616 12.2691391,1.97594007 12.5407096,1.81915388 C12.812236,1.66240866 13.1371161,1.58397461 13.5155701,1.58397461 C13.8609809,1.58397461 14.211943,1.6133413 14.5685445,1.67186989 C14.6342343,1.68215028 14.6788205,1.69927061 14.7020828,1.72351759 C14.7253452,1.74768265 14.7371526,1.78778026 14.7371526,1.84368756 L14.7371526,2.12633684 C14.7371526,2.20284588 14.6890859,2.24097752 14.5931727,2.24097752 L14.5602176,2.24097752 C14.211943,2.20530334 13.8638006,2.18744577 13.5155701,2.18744577 C12.8136018,2.18744577 12.4626838,2.62036896 12.4626838,3.48633821 L12.4626838,4.0976323 C12.4626838,4.52817994 12.5524289,4.8523194 12.7320073,5.06996877 C12.9115417,5.28770005 13.1728467,5.39652474 13.5155701,5.39652474 C13.8719513,5.39652474 14.2202699,5.37747939 14.5602176,5.33922487 L14.5931727,5.33922487 C14.6890859,5.33922487 14.7371526,5.37899483 14.7371526,5.45828899 L14.7371526,5.74249467 Z" id="Fill-12" fill="#5F6465"></path>
                    <path d="M19.1958649,5.82160861 C19.1958649,5.88734577 19.1670513,5.92408485 19.1094241,5.93162107 C19.0106471,5.94681639 18.790668,5.96192979 18.4492664,5.97728894 C18.1079088,5.99240234 17.780914,5.99997952 17.46837,5.99997952 C17.1200954,5.99997952 16.8159224,5.96545216 16.5561593,5.89672509 C16.2962641,5.8279161 16.0853167,5.68571087 15.9233173,5.47019131 C15.7612738,5.25458983 15.6803401,4.94531802 15.6803401,4.54233493 L15.6803401,0.280273734 C15.6803401,0.242019216 15.6965973,0.206345035 15.7293321,0.173128317 C15.7620668,0.140034473 15.8014983,0.123405635 15.8478027,0.123405635 L16.2726052,0.123405635 C16.3188215,0.123405635 16.358253,0.138723825 16.3909877,0.169401164 C16.4237225,0.200037545 16.4400678,0.237104289 16.4400678,0.28035565 L16.4400678,4.54655358 C16.4400678,4.75855078 16.464784,4.92127583 16.5140844,5.03485161 C16.5633847,5.14850931 16.6621617,5.23157158 16.810283,5.28379269 C16.9582722,5.3360957 17.1803661,5.36226769 17.4765647,5.36226769 L19.1012734,5.36226769 C19.1642757,5.36226769 19.1958649,5.39396897 19.1958649,5.45724866 L19.1958649,5.82160861 Z" id="Fill-14" fill="#C9CD1F"></path>
                    <path d="M20.6668437,5.78841238 C20.6668437,5.83424407 20.6503662,5.87184327 20.6176315,5.90120996 C20.5849408,5.93057665 20.545245,5.94511664 20.4988525,5.94511664 L20.0972683,5.94511664 C20.0507435,5.94511664 20.0110477,5.92992133 19.978313,5.89928495 C19.9456223,5.86864857 19.9292329,5.83170469 19.9292329,5.78841238 L19.9292329,1.79560728 C19.9292329,1.75231496 19.9449174,1.71545301 19.9763745,1.68481663 C20.0076994,1.65418025 20.048056,1.63886206 20.0972683,1.63886206 L20.4988525,1.63886206 C20.5506641,1.63886206 20.5917257,1.65291056 20.621817,1.68092564 C20.651732,1.70902265 20.6668437,1.74719525 20.6668437,1.79560728 L20.6668437,5.78841238 Z M20.6833212,0.795952011 C20.6833212,0.842029455 20.6668437,0.879751523 20.634109,0.909118214 C20.6014183,0.938443948 20.5617225,0.953147772 20.51533,0.953147772 L20.0891176,0.953147772 C20.0425489,0.953147772 20.0028971,0.937829582 19.9701624,0.907152243 C19.9373836,0.876515863 19.9210382,0.839449119 19.9210382,0.795952011 L19.9210382,0.170896121 C19.9210382,0.127480929 19.9367227,0.090414185 19.9682238,0.0597778043 C19.9995487,0.0291414236 20.0399054,0.0137003601 20.0891176,0.0137003601 L20.51533,0.0137003601 C20.5671416,0.0137003601 20.6082032,0.027871734 20.6382945,0.0559277779 C20.6682095,0.0839838217 20.6833212,0.122361213 20.6833212,0.170896121 L20.6833212,0.795952011 Z" id="Fill-16" fill="#C9CD1F"></path>
                    <path d="M23.8415264,0.444309436 C23.8415264,0.518483881 23.7825334,0.555427752 23.6645915,0.555427752 L22.9160544,0.555427752 C22.7542312,0.555427752 22.6349675,0.567633155 22.5582193,0.591839173 C22.4814711,0.61604519 22.4286902,0.666546069 22.3998326,0.743014147 C22.371063,0.819646057 22.3566562,0.934491527 22.3566562,1.08759151 L22.3566562,1.63888254 L23.6728302,1.63888254 C23.7798018,1.63888254 23.8332436,1.68491902 23.8332436,1.77695104 L23.8332436,2.04542895 C23.8332436,2.08896701 23.8181759,2.12357629 23.7879525,2.14909296 C23.7577731,2.17469154 23.719399,2.18742939 23.6728302,2.18742939 L22.3566562,2.18742939 L22.3566562,5.78843285 C22.3566562,5.83426455 22.3401787,5.87186375 22.307444,5.90118948 C22.2746652,5.93055617 22.2364233,5.94513712 22.1927623,5.94513712 L21.7870367,5.94513712 C21.7460192,5.94513712 21.7077773,5.92994181 21.672311,5.89930543 C21.6368006,5.86862809 21.6190454,5.83168422 21.6190454,5.78826902 L21.6190454,1.08652661 C21.6190454,0.686123863 21.7289689,0.404990017 21.9488599,0.243002201 C22.168751,0.0809734287 22.4911638,0 22.9160544,0 C23.2067458,0 23.458887,0.0153181904 23.6728302,0.0459545711 C23.785309,0.0588152977 23.8415264,0.103500179 23.8415264,0.179968258 L23.8415264,0.444309436 Z" id="Fill-18" fill="#C9CD1F"></path>
                    <g id="Group-22" stroke-width="1" fill="none" transform="translate(24.275074, 1.583983)">
                        <mask id="mask-6" fill="white">
                            <use xlink:href="#path-5"></use>
                        </mask>
                        <g id="Clip-21"></g>
                        <path d="M2.97256004,1.89941465 L2.97256004,1.861283 C2.97256004,1.44203969 2.88070014,1.12756626 2.6971125,0.917903647 C2.51352487,0.708322952 2.2382095,0.60343021 1.87112235,0.60343021 C1.63277123,0.60343021 1.42926961,0.651760329 1.26074964,0.748297694 C1.09222967,0.844916975 0.964066382,0.98851477 0.876524114,1.17900916 C0.788805617,1.36958547 0.744968397,1.5970647 0.744968397,1.861283 L0.744968397,1.89941465 L2.97256004,1.89941465 Z M3.7249301,2.25394474 C3.7249301,2.36965032 3.67144428,2.42744168 3.56460483,2.42744168 L0.744968397,2.42744168 L0.744968397,2.52307797 C0.744968397,2.81666297 0.792947022,3.06224551 0.888816159,3.25998942 C0.984729353,3.45781525 1.12368673,3.60399338 1.30590858,3.69835998 C1.48817449,3.79284946 1.71079708,3.83995085 1.97390851,3.83995085 C2.18208024,3.83995085 2.42386784,3.82852364 2.69931538,3.80558732 C2.97476292,3.78269195 3.21240911,3.75717528 3.41247425,3.72907828 L3.45362397,3.72907828 C3.54398591,3.72907828 3.58927703,3.76606311 3.58927703,3.83995085 L3.58927703,4.10322713 C3.58927703,4.15659505 3.57751368,4.19665171 3.55425131,4.2233971 C3.53098895,4.25010154 3.48635869,4.27115381 3.42066895,4.28634913 C3.18764879,4.32706111 2.95608253,4.35880335 2.72579394,4.38169872 C2.4955494,4.40451218 2.24473001,4.4160213 1.97346794,4.4160213 C1.61435519,4.4160213 1.28819747,4.35610014 0.994950695,4.23633974 C0.701659867,4.11649743 0.462515715,3.91260986 0.277518241,3.62463607 C0.092432651,3.33662133 0,2.95555063 0,2.48130109 L0,1.93467925 C0,1.56503575 0.0726508301,1.23307337 0.217864375,0.938669215 C0.36307792,0.644224107 0.577549868,0.414205505 0.861280217,0.248572453 C1.14505462,0.0828984419 1.48143369,0 1.87063772,0 C2.27081206,0 2.61001081,0.0822021605 2.88818991,0.246442651 C3.16641307,0.410765056 3.37537783,0.63803949 3.5151723,0.928388825 C3.65496678,1.21873816 3.7249301,1.55111013 3.7249301,1.92546376 L3.7249301,2.25394474 Z" id="Fill-20" fill="#C9CD1F" mask="url(#mask-6)"></path>
                    </g>
                    <path d="M9.15015397,0.431747981 C9.15015397,0.479886969 9.13367646,0.519343746 9.10094173,0.550118313 C9.068207,0.580935862 9.02855524,0.596237183 8.98211863,0.596237183 L8.28552538,0.596237183 C8.23895659,0.596237183 8.19934889,0.580291143 8.16661416,0.548141176 C8.13387944,0.515948228 8.1175341,0.477179151 8.1175341,0.431747981 L8.1175341,0.185078651 C8.1175341,0.139647482 8.13317452,0.100964367 8.16463158,0.0688144 C8.19600052,0.0366644333 8.23631314,0.02058945 8.28552538,0.02058945 L8.98211863,0.02058945 C9.03397432,0.02058945 9.07499186,0.0352890337 9.10512719,0.0647311823 C9.13504224,0.0942163122 9.15015397,0.134231846 9.15015397,0.185078651 L9.15015397,0.431747981 Z" id="Fill-23" fill="#C9CD1F"></path>
                    <path d="M8.28552538,0.0441517104 C8.24217279,0.0441517104 8.20785199,0.0580738828 8.18058039,0.0867553203 C8.15295634,0.115701103 8.13956286,0.149713499 8.13956286,0.190731038 L8.13956286,0.443577075 C8.13956286,0.484506499 8.15348503,0.51843078 8.18225458,0.547376563 C8.2108479,0.576190173 8.24464001,0.59020046 8.28552538,0.59020046 L8.98211863,0.59020046 C9.02309211,0.59020046 9.05697234,0.576718863 9.08565377,0.549094805 C9.1142471,0.521514806 9.12812521,0.487017777 9.12812521,0.443577075 L9.12812521,0.190731038 C9.12812521,0.144426598 9.11548071,0.109180592 9.08948678,0.0829223171 C9.06344879,0.0568402726 9.02833496,0.0441517104 8.98211863,0.0441517104 L8.28552538,0.0441517104 Z M8.98211863,0.634257968 L8.28552538,0.634257968 C8.23305289,0.634257968 8.18776177,0.615445412 8.15097375,0.578393048 C8.11414167,0.541340684 8.09550535,0.495961451 8.09550535,0.443577075 L8.09550535,0.190731038 C8.09550535,0.138566949 8.1133927,0.0933639464 8.14868276,0.05635564 C8.18419311,0.0190389311 8.23027726,9.42027749e-05 8.28552538,9.42027749e-05 L8.98211863,9.42027749e-05 C9.03983397,9.42027749e-05 9.08644681,0.0174969183 9.12072355,0.0518617742 C9.15486812,0.0863147452 9.17218272,0.133059761 9.17218272,0.190731038 L9.17218272,0.443577075 C9.17218272,0.498825189 9.15337016,0.544997457 9.11622968,0.580816211 C9.07948572,0.616238447 9.03432678,0.634257968 8.98211863,0.634257968 L8.98211863,0.634257968 Z" id="Fill-25" fill="#C9CD1F"></path>
                    <path d="M10.4188295,0.431747981 C10.4188295,0.479886969 10.402352,0.519343746 10.3696173,0.550118313 C10.3369266,0.580935862 10.2972308,0.596237183 10.2508383,0.596237183 L9.55420096,0.596237183 C9.50763218,0.596237183 9.46802448,0.580291143 9.43528975,0.548141176 C9.40255502,0.515948228 9.38620969,0.477179151 9.38620969,0.431747981 L9.38620969,0.185078651 C9.38620969,0.139647482 9.4018501,0.100964367 9.43330716,0.0688144 C9.46467611,0.0366644333 9.50503278,0.02058945 9.55420096,0.02058945 L10.2508383,0.02058945 C10.3026499,0.02058945 10.3437115,0.0352890337 10.3738028,0.0647311823 C10.4037178,0.0942163122 10.4188295,0.134231846 10.4188295,0.185078651 L10.4188295,0.431747981 Z" id="Fill-27" fill="#C9CD1F"></path>
                    <path d="M9.55420096,0.0441517104 C9.51084837,0.0441517104 9.47652758,0.0580738828 9.44925598,0.0867553203 C9.42163192,0.115701103 9.40823844,0.149713499 9.40823844,0.190731038 L9.40823844,0.443577075 C9.40823844,0.484506499 9.42216061,0.51843078 9.45093016,0.547376563 C9.47952349,0.576190173 9.51331559,0.59020046 9.55420096,0.59020046 L10.2508383,0.59020046 C10.2918558,0.59020046 10.325692,0.576718863 10.3543294,0.549094805 C10.3829227,0.521514806 10.3968008,0.487017777 10.3968008,0.443577075 L10.3968008,0.190731038 C10.3968008,0.144426598 10.3841563,0.109180592 10.3581624,0.0829223171 C10.3321684,0.0568402726 10.2970546,0.0441517104 10.2508383,0.0441517104 L9.55420096,0.0441517104 Z M10.2508383,0.634257968 L9.55420096,0.634257968 C9.50172847,0.634257968 9.45643735,0.615445412 9.41964933,0.578393048 C9.38281726,0.541340684 9.36418093,0.495961451 9.36418093,0.443577075 L9.36418093,0.190731038 C9.36418093,0.138566949 9.38206828,0.0933639464 9.41735834,0.05635564 C9.45286869,0.0190389311 9.49895285,9.42027749e-05 9.55420096,9.42027749e-05 L10.2508383,9.42027749e-05 C10.3085536,9.42027749e-05 10.3552105,0.0175409758 10.3893991,0.0518617742 C10.4235437,0.0863147452 10.4408583,0.133059761 10.4408583,0.190731038 L10.4408583,0.443577075 C10.4408583,0.498825189 10.4220457,0.544997457 10.3849053,0.580816211 C10.3481613,0.616238447 10.3030905,0.634257968 10.2508383,0.634257968 L10.2508383,0.634257968 Z" id="Fill-29" fill="#C9CD1F"></path>
                </g>
            </g>
        </g>
    </g>
</svg>